<svg id="Layer_1" data-name="Layer 1" xmlns="http://www.w3.org/2000/svg" viewBox="0 0 512 512"><defs><style>.cls-1{fill:none;}</style></defs><path d="M431.08,431.11a20,20,0,0,1-28.29,0L282.56,310.88a130.73,130.73,0,0,1-169.33-13.06c-50.88-50.88-50.88-133.68,0-184.56A130.52,130.52,0,0,1,242.62,80.41a20,20,0,1,1-11.34,38.35,90.51,90.51,0,1,0,63.07,69.48,20,20,0,0,1,39.27-7.61,130.44,130.44,0,0,1-22.77,102L431.08,402.82A20,20,0,0,1,431.08,431.11Z"/><rect class="cls-1" width="512" height="512"/></svg>