<svg id="Layer_1" data-name="Layer 1" xmlns="http://www.w3.org/2000/svg" viewBox="0 0 512 512"><defs><style>.cls-1{fill:none;}</style></defs><path d="M189.69,69.31a20,20,0,0,0-3.88,28,64.36,64.36,0,0,1,13.13,39.17,65,65,0,1,1-65-65,20,20,0,0,0,0-40,105,105,0,1,0,105,105,104.07,104.07,0,0,0-21.23-63.31A20,20,0,0,0,189.69,69.31Z"/><path d="M321.69,172.63V76.5h120v120h-60a20,20,0,0,0,0,40h80a20,20,0,0,0,20-20V56.5a20,20,0,0,0-20-20h-160a20,20,0,0,0-20,20V172.63a20,20,0,0,0,40,0Z"/><path d="M213.94,348.71a20,20,0,0,0-20,20V440.5h-120v-120H129a20,20,0,0,0,0-40H53.94a20,20,0,0,0-20,20v160a20,20,0,0,0,20,20h160a20,20,0,0,0,20-20V368.71A20,20,0,0,0,213.94,348.71Z"/><path d="M480.44,450.59l-92.38-162a20,20,0,0,0-34.75,0l-46.75,82a20,20,0,1,0,34.74,19.82l29.39-51.53L428.64,440.5H322.35a20,20,0,0,0,0,40H463.06a20,20,0,0,0,17.38-29.91Z"/><rect class="cls-1" width="512" height="512"/></svg>