<svg id="Layer_1" data-name="Layer 1" xmlns="http://www.w3.org/2000/svg" viewBox="0 0 512 512"><defs><style>.cls-1{fill:none;}</style></defs><path d="M256,438.06a19.93,19.93,0,0,1-14.14-5.85l-35.44-35.44a20,20,0,1,1,28.28-28.29l21.3,21.3L383.25,262.5A80,80,0,0,0,270.11,149.37,20,20,0,0,1,256,155.23h0a20,20,0,0,1-14.14-5.86A80,80,0,0,0,128.69,262.5a20,20,0,0,1-28.28,28.29A120,120,0,0,1,256,109,120,120,0,0,1,411.53,290.79L270.11,432.21A19.93,19.93,0,0,1,256,438.06Z"/><rect class="cls-1" width="512" height="512"/></svg>