<svg id="Layer_1" data-name="Layer 1" xmlns="http://www.w3.org/2000/svg" viewBox="0 0 512 512"><defs><style>.cls-1{fill:none;}.cls-2{fill:#53fb5e;}.cls-3{fill:#ac53fb;}</style></defs><rect class="cls-1" width="512" height="512"/><path class="cls-2" d="M425.5,501a20.07,20.07,0,0,1-6.16-1L255.5,447,91.66,500A20,20,0,0,1,65.5,481V31a20,20,0,0,1,20-20h340a20,20,0,0,1,20,20V226.48a20,20,0,1,1-40,0V51h-300V453.51L249.34,407a20.09,20.09,0,0,1,12.32,0L405.5,453.51V395.7a20,20,0,0,1,40,0V481a20,20,0,0,1-20,20Z"/><path class="cls-3" d="M255.5,350.92a20,20,0,0,1-14.14-5.86L219.27,323a20,20,0,0,1,28.29-28.28l7.94,7.94,68.7-68.7a38.58,38.58,0,1,0-54.56-54.56,20,20,0,0,1-14.14,5.86h0a20,20,0,0,1-14.15-5.86,38.58,38.58,0,0,0-54.55,54.56,20,20,0,1,1-28.28,28.28,78.6,78.6,0,0,1,97-122.36,78.59,78.59,0,0,1,97,122.37l-82.84,82.83A20,20,0,0,1,255.5,350.92Z"/></svg>