<svg id="Layer_1" data-name="Layer 1" xmlns="http://www.w3.org/2000/svg" viewBox="0 0 512 512"><defs><style>.cls-1{fill:none;}</style></defs><path d="M431,483.25a20,20,0,0,1-20-20c0-85.47-69.53-155-155-155a153.54,153.54,0,0,0-65.72,14.58,20,20,0,0,1-17-36.22A193.36,193.36,0,0,1,256,268.25c107.52,0,195,87.48,195,195A20,20,0,0,1,431,483.25Z"/><path d="M81,483.25a20,20,0,0,1-20-20,195,195,0,0,1,26.1-97.52,20,20,0,0,1,34.62,20A155,155,0,0,0,101,463.25,20,20,0,0,1,81,483.25Z"/><path d="M314,241.12a20,20,0,0,1-13.81-34.47,80.12,80.12,0,0,0,18.93-88.06,20,20,0,0,1,37-15.09,120.12,120.12,0,0,1-28.36,132.1A19.93,19.93,0,0,1,314,241.12Z"/><path d="M176,241.12a19.93,19.93,0,0,1-13.8-5.52A120,120,0,0,1,275.81,32.75a20,20,0,1,1-10.25,38.66A80.09,80.09,0,0,0,165,148.75a79.3,79.3,0,0,0,24.8,57.9A20,20,0,0,1,176,241.12Z"/><rect class="cls-1" width="512" height="512"/></svg>