<svg id="Layer_1" data-name="Layer 1" xmlns="http://www.w3.org/2000/svg" viewBox="0 0 512 512"><defs><style>.cls-1{fill:none;}</style></defs><path d="M240.24,280h0Z"/><path d="M435.25,255.66a20,20,0,0,1-7.32,15.46l-168,137.82a20,20,0,0,1-32.68-15.47V339.36a162.83,162.83,0,0,0-24.67,7.52c-34.38,13.47-64.59,37.44-89.8,71.24-.2.27-.4.53-.62.78s-.29.35-.45.52a2,2,0,0,1-.28.31q-.25.28-.54.57l-.69.66q-.63.57-1.29,1.08c-.34.26-.69.52-1.06.75l-.54.35a16.42,16.42,0,0,1-1.74,1c-.34.17-.69.32-1,.48h0a21,21,0,0,1-3.26,1.05c-.32.08-.65.14-1,.2l-.24,0c-.35.06-.69.11-1,.15s-.53.06-.8.07a3.11,3.11,0,0,1-.43,0c-.34,0-.68,0-1,0s-.76,0-1.13,0a5.34,5.34,0,0,1-.69-.05,3.88,3.88,0,0,1-.48,0l-.74-.1c-.34-.05-.66-.11-1-.18a19.36,19.36,0,0,1-5.51-2q-.34-.18-.69-.39a9.47,9.47,0,0,1-1-.6c-.27-.18-.53-.36-.78-.55s-.53-.4-.78-.62-.45-.38-.67-.57a.34.34,0,0,1-.06-.06l-.67-.64q-.35-.35-.66-.69c-.43-.48-.84-1-1.23-1.49-.19-.25-.37-.51-.55-.78s-.36-.54-.52-.81-.33-.55-.47-.83a16.87,16.87,0,0,1-.86-1.76c-.15-.35-.29-.71-.41-1.07s-.25-.72-.35-1.09-.2-.71-.28-1.07a.11.11,0,0,1,0-.08,8.33,8.33,0,0,1-.17-.84c0-.12,0-.24-.07-.37-.06-.33-.1-.66-.14-1s0-.5-.07-.76a3.87,3.87,0,0,1,0-.48c0-.34,0-.68,0-1v0c0-38.22,12.74-82.88,35-122.53a20,20,0,0,1,34.9,19.55,252.3,252.3,0,0,0-18.49,41.4c57.94-46.6,113.26-47.9,119-47.9h.37a20,20,0,0,1,19.76,20V351.2l116.47-95.54L267.25,160.12v44.54a20,20,0,0,1-20,20,75.49,75.49,0,0,0-32.72,7.89,20,20,0,1,1-17.28-36.07,121.2,121.2,0,0,1,30-9.95V117.85a20,20,0,0,1,32.68-15.47l168,137.82A20,20,0,0,1,435.25,255.66Z"/><path d="M94,409a21,21,0,0,0,3.26-1.05A18.8,18.8,0,0,1,94,409Z"/><rect class="cls-1" width="512" height="512"/></svg>