<?xml version="1.0" standalone="no"?>
<!DOCTYPE svg PUBLIC "-//W3C//DTD SVG 20010904//EN"
 "http://www.w3.org/TR/2001/REC-SVG-20010904/DTD/svg10.dtd">
<svg version="1.0" xmlns="http://www.w3.org/2000/svg"
 width="700.000000pt" height="700.000000pt" viewBox="0 0 700.000000 700.000000"
 preserveAspectRatio="xMidYMid meet">
<metadata>
Created by potrace 1.14, written by Peter Selinger 2001-2017
</metadata>
<g transform="translate(0.000000,700.000000) scale(0.100000,-0.100000)"
fill="#000000" stroke="none">
<path d="M3165 6920 c-687 -76 -1288 -323 -1820 -746 -141 -113 -406 -378
-519 -519 -349 -439 -583 -936 -691 -1470 -54 -267 -60 -338 -60 -690 1 -292
3 -347 23 -475 100 -642 334 -1180 728 -1675 113 -141 378 -406 519 -519 494
-393 1034 -628 1675 -728 129 -20 182 -22 480 -22 298 0 351 2 480 22 642 100
1180 334 1675 728 141 113 406 378 519 519 394 495 628 1033 728 1675 20 129
22 182 22 480 0 363 -10 467 -70 740 -228 1023 -898 1876 -1839 2340 -337 166
-642 261 -1030 321 -115 17 -194 22 -440 24 -165 2 -336 -1 -380 -5z m485
-796 c116 -27 205 -79 300 -174 142 -141 196 -281 187 -480 -8 -175 -65 -306
-183 -424 -122 -121 -242 -173 -434 -187 -69 -5 -162 -14 -206 -19 -492 -61
-924 -414 -1092 -892 -44 -125 -62 -220 -77 -418 -10 -137 -19 -190 -38 -242
-68 -187 -226 -341 -407 -400 -91 -29 -252 -35 -345 -14 -121 29 -209 79 -305
176 -141 140 -190 266 -190 490 0 479 159 998 434 1410 119 177 194 268 341
416 424 425 960 686 1558 758 158 19 376 19 457 0z m2005 -1989 c116 -30 203
-81 295 -174 170 -172 213 -338 180 -696 -75 -803 -505 -1522 -1180 -1970
-414 -275 -939 -435 -1426 -435 -194 0 -345 60 -474 190 -122 122 -178 249
-187 420 -10 198 45 339 187 480 137 138 248 182 490 194 363 19 664 149 913
394 250 247 385 556 402 923 4 68 13 157 21 197 47 223 233 414 464 476 73 20
240 20 315 1z"/>
</g>
</svg>
