<svg id="Layer_1" data-name="Layer 1" xmlns="http://www.w3.org/2000/svg" viewBox="0 0 512 512"><defs><style>.cls-1{fill:#333;}.cls-2{fill:#53fb5e;}.cls-3{fill:#ac53fb;}</style></defs><circle class="cls-1" cx="256" cy="256" r="251.51"/><path class="cls-2" d="M109.77,302.79A46.79,46.79,0,0,1,63,256C63,149.57,149.57,63,256,63a46.79,46.79,0,1,1,0,93.58A99.55,99.55,0,0,0,156.56,256,46.79,46.79,0,0,1,109.77,302.79Z"/><path class="cls-3" d="M256,449a46.79,46.79,0,0,1,0-93.58A99.55,99.55,0,0,0,355.44,256,46.79,46.79,0,1,1,449,256C449,362.43,362.43,449,256,449Z"/></svg>